<svg xmlns="http://www.w3.org/2000/svg" viewBox="0 0 200 200" width="200" height="200">
  <defs>
    <pattern id="rosette" x="0" y="0" width="200" height="200" patternUnits="userSpaceOnUse">
      <rect width="200" height="200" fill="#F7F1E2"/>
      <g transform="translate(0,0) scale(0.13)" fill="none" stroke="#4E5538" stroke-opacity="0.2" stroke-width="1.8" stroke-linecap="round" stroke-linejoin="round"><g transform="rotate(0)"><path d="M 0 -20 C -55 -85, -95 -145, -55 -195 C -15 -218, 30 -195, 35 -140 C 40 -85, 15 -40, 0 -20 Z"/></g><g transform="rotate(60)"><path d="M 0 -20 C -55 -85, -95 -145, -55 -195 C -15 -218, 30 -195, 35 -140 C 40 -85, 15 -40, 0 -20 Z"/></g><g transform="rotate(120)"><path d="M 0 -20 C -55 -85, -95 -145, -55 -195 C -15 -218, 30 -195, 35 -140 C 40 -85, 15 -40, 0 -20 Z"/></g><g transform="rotate(180)"><path d="M 0 -20 C -55 -85, -95 -145, -55 -195 C -15 -218, 30 -195, 35 -140 C 40 -85, 15 -40, 0 -20 Z"/></g><g transform="rotate(240)"><path d="M 0 -20 C -55 -85, -95 -145, -55 -195 C -15 -218, 30 -195, 35 -140 C 40 -85, 15 -40, 0 -20 Z"/></g><g transform="rotate(300)"><path d="M 0 -20 C -55 -85, -95 -145, -55 -195 C -15 -218, 30 -195, 35 -140 C 40 -85, 15 -40, 0 -20 Z"/></g><circle r="6" fill="#4E5538" fill-opacity="0.2" stroke="none"/></g>
      <g transform="translate(200,0) scale(0.13)" fill="none" stroke="#4E5538" stroke-opacity="0.2" stroke-width="1.8" stroke-linecap="round" stroke-linejoin="round"><g transform="rotate(0)"><path d="M 0 -20 C -55 -85, -95 -145, -55 -195 C -15 -218, 30 -195, 35 -140 C 40 -85, 15 -40, 0 -20 Z"/></g><g transform="rotate(60)"><path d="M 0 -20 C -55 -85, -95 -145, -55 -195 C -15 -218, 30 -195, 35 -140 C 40 -85, 15 -40, 0 -20 Z"/></g><g transform="rotate(120)"><path d="M 0 -20 C -55 -85, -95 -145, -55 -195 C -15 -218, 30 -195, 35 -140 C 40 -85, 15 -40, 0 -20 Z"/></g><g transform="rotate(180)"><path d="M 0 -20 C -55 -85, -95 -145, -55 -195 C -15 -218, 30 -195, 35 -140 C 40 -85, 15 -40, 0 -20 Z"/></g><g transform="rotate(240)"><path d="M 0 -20 C -55 -85, -95 -145, -55 -195 C -15 -218, 30 -195, 35 -140 C 40 -85, 15 -40, 0 -20 Z"/></g><g transform="rotate(300)"><path d="M 0 -20 C -55 -85, -95 -145, -55 -195 C -15 -218, 30 -195, 35 -140 C 40 -85, 15 -40, 0 -20 Z"/></g><circle r="6" fill="#4E5538" fill-opacity="0.2" stroke="none"/></g>
      <g transform="translate(0,200) scale(0.13)" fill="none" stroke="#4E5538" stroke-opacity="0.2" stroke-width="1.8" stroke-linecap="round" stroke-linejoin="round"><g transform="rotate(0)"><path d="M 0 -20 C -55 -85, -95 -145, -55 -195 C -15 -218, 30 -195, 35 -140 C 40 -85, 15 -40, 0 -20 Z"/></g><g transform="rotate(60)"><path d="M 0 -20 C -55 -85, -95 -145, -55 -195 C -15 -218, 30 -195, 35 -140 C 40 -85, 15 -40, 0 -20 Z"/></g><g transform="rotate(120)"><path d="M 0 -20 C -55 -85, -95 -145, -55 -195 C -15 -218, 30 -195, 35 -140 C 40 -85, 15 -40, 0 -20 Z"/></g><g transform="rotate(180)"><path d="M 0 -20 C -55 -85, -95 -145, -55 -195 C -15 -218, 30 -195, 35 -140 C 40 -85, 15 -40, 0 -20 Z"/></g><g transform="rotate(240)"><path d="M 0 -20 C -55 -85, -95 -145, -55 -195 C -15 -218, 30 -195, 35 -140 C 40 -85, 15 -40, 0 -20 Z"/></g><g transform="rotate(300)"><path d="M 0 -20 C -55 -85, -95 -145, -55 -195 C -15 -218, 30 -195, 35 -140 C 40 -85, 15 -40, 0 -20 Z"/></g><circle r="6" fill="#4E5538" fill-opacity="0.2" stroke="none"/></g>
      <g transform="translate(200,200) scale(0.13)" fill="none" stroke="#4E5538" stroke-opacity="0.2" stroke-width="1.8" stroke-linecap="round" stroke-linejoin="round"><g transform="rotate(0)"><path d="M 0 -20 C -55 -85, -95 -145, -55 -195 C -15 -218, 30 -195, 35 -140 C 40 -85, 15 -40, 0 -20 Z"/></g><g transform="rotate(60)"><path d="M 0 -20 C -55 -85, -95 -145, -55 -195 C -15 -218, 30 -195, 35 -140 C 40 -85, 15 -40, 0 -20 Z"/></g><g transform="rotate(120)"><path d="M 0 -20 C -55 -85, -95 -145, -55 -195 C -15 -218, 30 -195, 35 -140 C 40 -85, 15 -40, 0 -20 Z"/></g><g transform="rotate(180)"><path d="M 0 -20 C -55 -85, -95 -145, -55 -195 C -15 -218, 30 -195, 35 -140 C 40 -85, 15 -40, 0 -20 Z"/></g><g transform="rotate(240)"><path d="M 0 -20 C -55 -85, -95 -145, -55 -195 C -15 -218, 30 -195, 35 -140 C 40 -85, 15 -40, 0 -20 Z"/></g><g transform="rotate(300)"><path d="M 0 -20 C -55 -85, -95 -145, -55 -195 C -15 -218, 30 -195, 35 -140 C 40 -85, 15 -40, 0 -20 Z"/></g><circle r="6" fill="#4E5538" fill-opacity="0.2" stroke="none"/></g>
      <g transform="translate(100,100) scale(0.13)" fill="none" stroke="#4E5538" stroke-opacity="0.2" stroke-width="1.8" stroke-linecap="round" stroke-linejoin="round"><g transform="rotate(0)"><path d="M 0 -20 C -55 -85, -95 -145, -55 -195 C -15 -218, 30 -195, 35 -140 C 40 -85, 15 -40, 0 -20 Z"/></g><g transform="rotate(60)"><path d="M 0 -20 C -55 -85, -95 -145, -55 -195 C -15 -218, 30 -195, 35 -140 C 40 -85, 15 -40, 0 -20 Z"/></g><g transform="rotate(120)"><path d="M 0 -20 C -55 -85, -95 -145, -55 -195 C -15 -218, 30 -195, 35 -140 C 40 -85, 15 -40, 0 -20 Z"/></g><g transform="rotate(180)"><path d="M 0 -20 C -55 -85, -95 -145, -55 -195 C -15 -218, 30 -195, 35 -140 C 40 -85, 15 -40, 0 -20 Z"/></g><g transform="rotate(240)"><path d="M 0 -20 C -55 -85, -95 -145, -55 -195 C -15 -218, 30 -195, 35 -140 C 40 -85, 15 -40, 0 -20 Z"/></g><g transform="rotate(300)"><path d="M 0 -20 C -55 -85, -95 -145, -55 -195 C -15 -218, 30 -195, 35 -140 C 40 -85, 15 -40, 0 -20 Z"/></g><circle r="6" fill="#4E5538" fill-opacity="0.2" stroke="none"/></g>
    </pattern>
  </defs>
  <rect width="200" height="200" fill="url(#rosette)"/>
</svg>