<svg xmlns="http://www.w3.org/2000/svg" viewBox="0 0 300 300" width="300" height="300">
  <defs>
    <pattern id="darkbloom" x="0" y="0" width="300" height="300" patternUnits="userSpaceOnUse">
      <rect width="300" height="300" fill="#4E5538"/>
      <g transform="translate(186,27) scale(0.13) rotate(80)"><path d="M 0 -20 C -55 -85, -95 -145, -55 -195 C -15 -218, 30 -195, 35 -140 C 40 -85, 15 -40, 0 -20 Z" fill="none" stroke="#EFE4C4" stroke-opacity="0.17" stroke-width="2" stroke-linecap="round"/></g><g transform="translate(186,327) scale(0.13) rotate(80)"><path d="M 0 -20 C -55 -85, -95 -145, -55 -195 C -15 -218, 30 -195, 35 -140 C 40 -85, 15 -40, 0 -20 Z" fill="none" stroke="#EFE4C4" stroke-opacity="0.17" stroke-width="2" stroke-linecap="round"/></g><g transform="translate(252,43) scale(0.15) rotate(11)"><path d="M 0 -20 C -55 -85, -95 -145, -55 -195 C -15 -218, 30 -195, 35 -140 C 40 -85, 15 -40, 0 -20 Z" fill="none" stroke="#EFE4C4" stroke-opacity="0.12" stroke-width="2" stroke-linecap="round"/></g><g transform="translate(-48,43) scale(0.15) rotate(11)"><path d="M 0 -20 C -55 -85, -95 -145, -55 -195 C -15 -218, 30 -195, 35 -140 C 40 -85, 15 -40, 0 -20 Z" fill="none" stroke="#EFE4C4" stroke-opacity="0.12" stroke-width="2" stroke-linecap="round"/></g><g transform="translate(252,343) scale(0.15) rotate(11)"><path d="M 0 -20 C -55 -85, -95 -145, -55 -195 C -15 -218, 30 -195, 35 -140 C 40 -85, 15 -40, 0 -20 Z" fill="none" stroke="#EFE4C4" stroke-opacity="0.12" stroke-width="2" stroke-linecap="round"/></g><g transform="translate(177,166) scale(0.19) rotate(252)"><path d="M 0 -20 C -55 -85, -95 -145, -55 -195 C -15 -218, 30 -195, 35 -140 C 40 -85, 15 -40, 0 -20 Z" fill="none" stroke="#EFE4C4" stroke-opacity="0.12" stroke-width="2" stroke-linecap="round"/></g><g transform="translate(173,230) scale(0.10) rotate(290)"><path d="M 0 -20 C -55 -85, -95 -145, -55 -195 C -15 -218, 30 -195, 35 -140 C 40 -85, 15 -40, 0 -20 Z" fill="none" stroke="#EFE4C4" stroke-opacity="0.13" stroke-width="2" stroke-linecap="round"/></g><g transform="translate(173,-70) scale(0.10) rotate(290)"><path d="M 0 -20 C -55 -85, -95 -145, -55 -195 C -15 -218, 30 -195, 35 -140 C 40 -85, 15 -40, 0 -20 Z" fill="none" stroke="#EFE4C4" stroke-opacity="0.13" stroke-width="2" stroke-linecap="round"/></g><g transform="translate(60,269) scale(0.14) rotate(33)"><path d="M 0 -20 C -55 -85, -95 -145, -55 -195 C -15 -218, 30 -195, 35 -140 C 40 -85, 15 -40, 0 -20 Z" fill="none" stroke="#EFE4C4" stroke-opacity="0.14" stroke-width="2" stroke-linecap="round"/></g><g transform="translate(360,269) scale(0.14) rotate(33)"><path d="M 0 -20 C -55 -85, -95 -145, -55 -195 C -15 -218, 30 -195, 35 -140 C 40 -85, 15 -40, 0 -20 Z" fill="none" stroke="#EFE4C4" stroke-opacity="0.14" stroke-width="2" stroke-linecap="round"/></g><g transform="translate(60,-31) scale(0.14) rotate(33)"><path d="M 0 -20 C -55 -85, -95 -145, -55 -195 C -15 -218, 30 -195, 35 -140 C 40 -85, 15 -40, 0 -20 Z" fill="none" stroke="#EFE4C4" stroke-opacity="0.14" stroke-width="2" stroke-linecap="round"/></g><g transform="translate(109,89) scale(0.11) rotate(165)"><path d="M 0 -20 C -55 -85, -95 -145, -55 -195 C -15 -218, 30 -195, 35 -140 C 40 -85, 15 -40, 0 -20 Z" fill="none" stroke="#EFE4C4" stroke-opacity="0.20" stroke-width="2" stroke-linecap="round"/></g><g transform="translate(118,164) scale(0.20) rotate(223)"><path d="M 0 -20 C -55 -85, -95 -145, -55 -195 C -15 -218, 30 -195, 35 -140 C 40 -85, 15 -40, 0 -20 Z" fill="none" stroke="#B89968" stroke-opacity="0.16" stroke-width="2" stroke-linecap="round"/></g><g transform="translate(203,32) scale(0.13) rotate(104)"><path d="M 0 -20 C -55 -85, -95 -145, -55 -195 C -15 -218, 30 -195, 35 -140 C 40 -85, 15 -40, 0 -20 Z" fill="none" stroke="#EFE4C4" stroke-opacity="0.19" stroke-width="2" stroke-linecap="round"/></g><g transform="translate(203,332) scale(0.13) rotate(104)"><path d="M 0 -20 C -55 -85, -95 -145, -55 -195 C -15 -218, 30 -195, 35 -140 C 40 -85, 15 -40, 0 -20 Z" fill="none" stroke="#EFE4C4" stroke-opacity="0.19" stroke-width="2" stroke-linecap="round"/></g><g transform="translate(245,119) scale(0.15) rotate(300)"><path d="M 0 -20 C -55 -85, -95 -145, -55 -195 C -15 -218, 30 -195, 35 -140 C 40 -85, 15 -40, 0 -20 Z" fill="none" stroke="#EFE4C4" stroke-opacity="0.14" stroke-width="2" stroke-linecap="round"/></g><g transform="translate(-55,119) scale(0.15) rotate(300)"><path d="M 0 -20 C -55 -85, -95 -145, -55 -195 C -15 -218, 30 -195, 35 -140 C 40 -85, 15 -40, 0 -20 Z" fill="none" stroke="#EFE4C4" stroke-opacity="0.14" stroke-width="2" stroke-linecap="round"/></g><g transform="translate(74,89) scale(0.21) rotate(233)"><path d="M 0 -20 C -55 -85, -95 -145, -55 -195 C -15 -218, 30 -195, 35 -140 C 40 -85, 15 -40, 0 -20 Z" fill="none" stroke="#EFE4C4" stroke-opacity="0.15" stroke-width="2" stroke-linecap="round"/></g><g transform="translate(374,89) scale(0.21) rotate(233)"><path d="M 0 -20 C -55 -85, -95 -145, -55 -195 C -15 -218, 30 -195, 35 -140 C 40 -85, 15 -40, 0 -20 Z" fill="none" stroke="#EFE4C4" stroke-opacity="0.15" stroke-width="2" stroke-linecap="round"/></g><g transform="translate(84,140) scale(0.13) rotate(333)"><path d="M 0 -20 C -55 -85, -95 -145, -55 -195 C -15 -218, 30 -195, 35 -140 C 40 -85, 15 -40, 0 -20 Z" fill="none" stroke="#B89968" stroke-opacity="0.17" stroke-width="2" stroke-linecap="round"/></g><g transform="translate(239,222) scale(0.13) rotate(12)"><path d="M 0 -20 C -55 -85, -95 -145, -55 -195 C -15 -218, 30 -195, 35 -140 C 40 -85, 15 -40, 0 -20 Z" fill="none" stroke="#B89968" stroke-opacity="0.14" stroke-width="2" stroke-linecap="round"/></g><g transform="translate(-61,222) scale(0.13) rotate(12)"><path d="M 0 -20 C -55 -85, -95 -145, -55 -195 C -15 -218, 30 -195, 35 -140 C 40 -85, 15 -40, 0 -20 Z" fill="none" stroke="#B89968" stroke-opacity="0.14" stroke-width="2" stroke-linecap="round"/></g><g transform="translate(239,-78) scale(0.13) rotate(12)"><path d="M 0 -20 C -55 -85, -95 -145, -55 -195 C -15 -218, 30 -195, 35 -140 C 40 -85, 15 -40, 0 -20 Z" fill="none" stroke="#B89968" stroke-opacity="0.14" stroke-width="2" stroke-linecap="round"/></g><g transform="translate(37,257) scale(0.17) rotate(258)"><path d="M 0 -20 C -55 -85, -95 -145, -55 -195 C -15 -218, 30 -195, 35 -140 C 40 -85, 15 -40, 0 -20 Z" fill="none" stroke="#EFE4C4" stroke-opacity="0.17" stroke-width="2" stroke-linecap="round"/></g><g transform="translate(337,257) scale(0.17) rotate(258)"><path d="M 0 -20 C -55 -85, -95 -145, -55 -195 C -15 -218, 30 -195, 35 -140 C 40 -85, 15 -40, 0 -20 Z" fill="none" stroke="#EFE4C4" stroke-opacity="0.17" stroke-width="2" stroke-linecap="round"/></g><g transform="translate(37,-43) scale(0.17) rotate(258)"><path d="M 0 -20 C -55 -85, -95 -145, -55 -195 C -15 -218, 30 -195, 35 -140 C 40 -85, 15 -40, 0 -20 Z" fill="none" stroke="#EFE4C4" stroke-opacity="0.17" stroke-width="2" stroke-linecap="round"/></g><g transform="translate(123,258) scale(0.16) rotate(95)"><path d="M 0 -20 C -55 -85, -95 -145, -55 -195 C -15 -218, 30 -195, 35 -140 C 40 -85, 15 -40, 0 -20 Z" fill="none" stroke="#EFE4C4" stroke-opacity="0.17" stroke-width="2" stroke-linecap="round"/></g><g transform="translate(123,-42) scale(0.16) rotate(95)"><path d="M 0 -20 C -55 -85, -95 -145, -55 -195 C -15 -218, 30 -195, 35 -140 C 40 -85, 15 -40, 0 -20 Z" fill="none" stroke="#EFE4C4" stroke-opacity="0.17" stroke-width="2" stroke-linecap="round"/></g>
    </pattern>
  </defs>
  <rect width="300" height="300" fill="url(#darkbloom)"/>
</svg>