<svg xmlns="http://www.w3.org/2000/svg" viewBox="0 0 1300 420">
  <g transform="translate(210,210) scale(0.55)"><g fill="none" stroke="#FFFFFF" stroke-width="11" stroke-linecap="round" stroke-linejoin="round"><g transform="rotate(0)"><path d="M 0 -20 C -55 -85, -95 -145, -55 -195 C -15 -218, 30 -195, 35 -140 C 40 -85, 15 -40, 0 -20 Z"/></g><g transform="rotate(60)"><path d="M 0 -20 C -55 -85, -95 -145, -55 -195 C -15 -218, 30 -195, 35 -140 C 40 -85, 15 -40, 0 -20 Z"/></g><g transform="rotate(120)"><path d="M 0 -20 C -55 -85, -95 -145, -55 -195 C -15 -218, 30 -195, 35 -140 C 40 -85, 15 -40, 0 -20 Z"/></g><g transform="rotate(180)"><path d="M 0 -20 C -55 -85, -95 -145, -55 -195 C -15 -218, 30 -195, 35 -140 C 40 -85, 15 -40, 0 -20 Z"/></g><g transform="rotate(240)"><path d="M 0 -20 C -55 -85, -95 -145, -55 -195 C -15 -218, 30 -195, 35 -140 C 40 -85, 15 -40, 0 -20 Z"/></g><g transform="rotate(300)"><path d="M 0 -20 C -55 -85, -95 -145, -55 -195 C -15 -218, 30 -195, 35 -140 C 40 -85, 15 -40, 0 -20 Z"/></g><circle r="10" fill="#FFFFFF" stroke="none"/></g></g>
  <text x="395" y="262" text-anchor="start"
        font-family="Cormorant Garamond, Georgia, serif" font-weight="300"
        font-size="130" letter-spacing="6" fill="#FFFFFF">ПОЛЯНКА</text>
</svg>