<svg xmlns="http://www.w3.org/2000/svg" viewBox="0 0 1400 500">
  <g transform="translate(250,250) scale(0.55)"><g fill="none" stroke="#4E5538" stroke-width="11" stroke-linecap="round" stroke-linejoin="round"><g transform="rotate(0)"><path d="M 0 -20 C -55 -85, -95 -145, -55 -195 C -15 -218, 30 -195, 35 -140 C 40 -85, 15 -40, 0 -20 Z"/></g><g transform="rotate(60)"><path d="M 0 -20 C -55 -85, -95 -145, -55 -195 C -15 -218, 30 -195, 35 -140 C 40 -85, 15 -40, 0 -20 Z"/></g><g transform="rotate(120)"><path d="M 0 -20 C -55 -85, -95 -145, -55 -195 C -15 -218, 30 -195, 35 -140 C 40 -85, 15 -40, 0 -20 Z"/></g><g transform="rotate(180)"><path d="M 0 -20 C -55 -85, -95 -145, -55 -195 C -15 -218, 30 -195, 35 -140 C 40 -85, 15 -40, 0 -20 Z"/></g><g transform="rotate(240)"><path d="M 0 -20 C -55 -85, -95 -145, -55 -195 C -15 -218, 30 -195, 35 -140 C 40 -85, 15 -40, 0 -20 Z"/></g><g transform="rotate(300)"><path d="M 0 -20 C -55 -85, -95 -145, -55 -195 C -15 -218, 30 -195, 35 -140 C 40 -85, 15 -40, 0 -20 Z"/></g><circle r="10" fill="#4E5538" stroke="none"/></g></g>
  <text x="460" y="270" text-anchor="start"
        font-family="Cormorant Garamond, Georgia, serif" font-weight="300"
        font-size="110" letter-spacing="5" fill="#1F2014">ПОЛЯНКА</text>
  <line x1="460" y1="295" x2="580" y2="295" stroke="#B89968" stroke-width="1.5"/>
  <text x="460" y="345" text-anchor="start"
        font-family="Cormorant Garamond, Georgia, serif" font-style="italic" font-weight="300"
        font-size="26" letter-spacing="9" fill="#6B7350">жилой комплекс</text>
</svg>