<svg xmlns="http://www.w3.org/2000/svg" viewBox="0 0 500 500">
  <g transform="translate(250,250)"><g fill="none" stroke="#4E5538" stroke-width="6" stroke-linecap="round" stroke-linejoin="round"><g transform="rotate(0)"><path d="M 0 -20 C -55 -85, -95 -145, -55 -195 C -15 -218, 30 -195, 35 -140 C 40 -85, 15 -40, 0 -20 Z"/></g><g transform="rotate(60)"><path d="M 0 -20 C -55 -85, -95 -145, -55 -195 C -15 -218, 30 -195, 35 -140 C 40 -85, 15 -40, 0 -20 Z"/></g><g transform="rotate(120)"><path d="M 0 -20 C -55 -85, -95 -145, -55 -195 C -15 -218, 30 -195, 35 -140 C 40 -85, 15 -40, 0 -20 Z"/></g><g transform="rotate(180)"><path d="M 0 -20 C -55 -85, -95 -145, -55 -195 C -15 -218, 30 -195, 35 -140 C 40 -85, 15 -40, 0 -20 Z"/></g><g transform="rotate(240)"><path d="M 0 -20 C -55 -85, -95 -145, -55 -195 C -15 -218, 30 -195, 35 -140 C 40 -85, 15 -40, 0 -20 Z"/></g><g transform="rotate(300)"><path d="M 0 -20 C -55 -85, -95 -145, -55 -195 C -15 -218, 30 -195, 35 -140 C 40 -85, 15 -40, 0 -20 Z"/></g><circle r="10" fill="#4E5538" stroke="none"/></g></g>
</svg>